# xmcd
#
# Track frame offsets: 
#        150
#        14926
#        30491
#        44437
#        58904
#        71852
#        85777
#        99645
#        112888
#        129395
#        146181
#        163042
#        178860
#
# Disc length: 2643 seconds
#
# Revision: 2
# Processed by: cddbd v1.5.2PL0 Copyright (c) Steve Scherf et al.
# Submitted via: ExactAudioCopy v1.3
#
DISCID=bf0a510d
DTITLE=Mariana - Sere Una Niña Buena
DYEAR=2003
DGENRE=Latin
TTITLE0=Que No Me Faltes Tú
TTITLE1=Me Equivoqué
TTITLE2=Que Mal Elegiste
TTITLE3=Como Un Fantasma
TTITLE4=Déjalo
TTITLE5=Dime Corazón
TTITLE6=Mi Gran Noche
TTITLE7=Pa' Que Sientas Lo Que Siento
TTITLE8=Propiedad Privada
TTITLE9=Yo Necesito Un Par
TTITLE10=Me Equivoqué (Pop)
TTITLE11=Me Equivoqué (Norteña)
TTITLE12=Me Equivoqué (Salsa)
EXTD=
EXTT0=
EXTT1=
EXTT2=
EXTT3=
EXTT4=
EXTT5=
EXTT6=
EXTT7=
EXTT8=
EXTT9=
EXTT10=
EXTT11=
EXTT12=
PLAYORDER=
